<?xml version="1.0" encoding="UTF-8"?>
<!DOCTYPE svg PUBLIC "-//W3C//DTD SVG 1.1//EN" "http://www.w3.org/Graphics/SVG/1.1/DTD/svg11.dtd">
<svg xmlns="http://www.w3.org/2000/svg" version="1.1" width="1024px" height="1024px" style="shape-rendering:geometricPrecision; text-rendering:geometricPrecision; image-rendering:optimizeQuality; fill-rule:evenodd; clip-rule:evenodd" xmlns:xlink="http://www.w3.org/1999/xlink">
<g><path style="opacity:1" fill="#f9f9f9" d="M 495.5,65.5 C 645.776,64.8886 765.609,124.555 855,244.5C 914.093,332.04 936.926,428.207 923.5,533C 920.375,546.569 916.875,560.069 913,573.5C 913.356,588.924 913.856,603.757 914.5,618C 912.041,677.417 884.708,721.084 832.5,749C 798.47,765.094 762.803,776.094 725.5,782C 696.584,787.537 670.584,781.87 647.5,765C 624.626,746.451 602.793,726.618 582,705.5C 544.002,663.209 537.335,616.209 562,564.5C 567.824,552.184 574.157,540.184 581,528.5C 581.667,523.167 581.667,517.833 581,512.5C 576.368,481.825 576.368,451.158 581,420.5C 581.938,413.654 584.771,407.82 589.5,403C 594.603,400.502 599.936,400.169 605.5,402C 625.038,408.269 642.705,417.935 658.5,431C 670.167,441.333 681.167,452.333 691.5,464C 693.513,465.257 695.679,466.091 698,466.5C 723.402,461.965 748.569,463.132 773.5,470C 781.677,472.504 789.844,475.004 798,477.5C 799.167,477.333 800.333,477.167 801.5,477C 820.342,466.077 840.008,457.077 860.5,450C 864.754,448.686 869.087,447.853 873.5,447.5C 866.698,374.611 839.864,309.944 793,253.5C 705.104,152.663 594.271,108.496 460.5,121C 340.218,138.383 247.385,198.216 182,300.5C 120.897,404.989 109.563,514.989 148,630.5C 162.697,669.092 185.197,702.259 215.5,730C 237.801,749.317 263.467,761.983 292.5,768C 333.939,775.104 370.106,764.604 401,736.5C 420.447,715.01 424.781,690.676 414,663.5C 405.689,648.082 394.855,634.582 381.5,623C 367.833,611.333 354.167,599.667 340.5,588C 311.077,560.921 291.243,528.088 281,489.5C 277.345,476.046 277.678,462.713 282,449.5C 288.697,434.58 300.197,428.747 316.5,432C 334.853,435.508 352.186,441.842 368.5,451C 416.211,477.377 452.378,514.877 477,563.5C 508.484,635.115 500.484,702.115 453,764.5C 405.244,816.839 346.91,835.839 278,821.5C 245.218,815.198 215.718,801.365 189.5,780C 148.032,744.155 117.865,700.322 99,648.5C 59.8881,532.739 65.8881,419.406 117,308.5C 162.635,218.198 230.802,150.698 321.5,106C 376.946,81.0806 434.946,67.5806 495.5,65.5 Z M 608.5,577.5 C 623.193,576.927 635.36,582.26 645,593.5C 661.887,616.383 665.22,641.049 655,667.5C 650.708,673.6 644.874,675.766 637.5,674C 593.949,659.732 580.449,631.232 597,588.5C 599.741,583.59 603.575,579.923 608.5,577.5 Z M 791.5,607.5 C 822.489,603.323 835.989,616.656 832,647.5C 826.91,670.923 812.744,685.423 789.5,691C 773.146,695.965 757.146,694.965 741.5,688C 738.894,686.062 737.061,683.562 736,680.5C 735.741,641.61 754.241,617.276 791.5,607.5 Z"/></g>
<g><path style="opacity:1" fill="#f9f9f9" d="M 536.5,729.5 C 550.631,730.582 564.297,734.415 577.5,741C 592.993,750.919 607.993,761.585 622.5,773C 647.123,788.978 673.123,802.312 700.5,813C 705.122,818.415 705.956,824.248 703,830.5C 684.277,850.982 660.944,862.316 633,864.5C 615.336,863.994 597.169,863.828 578.5,864C 566.83,865.78 555.496,868.78 544.5,873C 527.003,877.779 512.669,873.279 501.5,859.5C 499.971,854.017 498.638,848.517 497.5,843C 485.66,840.228 475.327,834.728 466.5,826.5C 463.481,822.461 460.981,818.128 459,813.5C 456.655,793.378 464.155,778.045 481.5,767.5C 485.501,759.123 490.168,751.623 495.5,745C 507.61,735.427 521.277,730.261 536.5,729.5 Z"/></g>
</svg>
