<?xml version="1.0" encoding="UTF-8"?>
<svg viewBox="0 0 200 200" xmlns="http://www.w3.org/2000/svg">
  <defs>
    <!-- Gradients for 3D effect -->
    <radialGradient id="froggiBody3D" cx="0.3" cy="0.2">
      <stop offset="0%" style="stop-color:#86efac;stop-opacity:1" />
      <stop offset="40%" style="stop-color:#22c55e;stop-opacity:1" />
      <stop offset="100%" style="stop-color:#15803d;stop-opacity:1" />
    </radialGradient>
    <radialGradient id="froggiEyeBase3D" cx="0.3" cy="0.2">
      <stop offset="0%" style="stop-color:#4ade80;stop-opacity:1" />
      <stop offset="100%" style="stop-color:#16a34a;stop-opacity:1" />
    </radialGradient>
    <radialGradient id="froggiEyeWhite3D" cx="0.3" cy="0.3">
      <stop offset="0%" style="stop-color:#ffffff;stop-opacity:1" />
      <stop offset="70%" style="stop-color:#f5f5f4;stop-opacity:1" />
      <stop offset="100%" style="stop-color:#e7e5e4;stop-opacity:1" />
    </radialGradient>
    <radialGradient id="froggiPupil3D" cx="0.3" cy="0.3">
      <stop offset="0%" style="stop-color:#374151;stop-opacity:1" />
      <stop offset="100%" style="stop-color:#1e293b;stop-opacity:1" />
    </radialGradient>
    <linearGradient id="froggiMouth3D" x1="0" y1="0" x2="1" y2="0">
      <stop offset="0%" style="stop-color:#374151;stop-opacity:1" />
      <stop offset="50%" style="stop-color:#1e293b;stop-opacity:1" />
      <stop offset="100%" style="stop-color:#374151;stop-opacity:1" />
    </linearGradient>
    <linearGradient id="froggiMouthHighlight" x1="0" y1="0" x2="1" y2="0">
      <stop offset="0%" style="stop-color:rgba(255,255,255,0.3);stop-opacity:1" />
      <stop offset="50%" style="stop-color:rgba(255,255,255,0.1);stop-opacity:1" />
      <stop offset="100%" style="stop-color:rgba(255,255,255,0.3);stop-opacity:1" />
    </linearGradient>
    <radialGradient id="froggiNostril3D" cx="0.3" cy="0.2">
      <stop offset="0%" style="stop-color:#16a34a;stop-opacity:1" />
      <stop offset="100%" style="stop-color:#14532d;stop-opacity:1" />
    </radialGradient>
    <radialGradient id="froggiNostrilHighlight" cx="0.4" cy="0.3">
      <stop offset="0%" style="stop-color:#4ade80;stop-opacity:1" />
      <stop offset="100%" style="stop-color:#16a34a;stop-opacity:1" />
    </radialGradient>
    <radialGradient id="froggiFeet3D" cx="0.3" cy="0.2">
      <stop offset="0%" style="stop-color:#4ade80;stop-opacity:1" />
      <stop offset="100%" style="stop-color:#16a34a;stop-opacity:1" />
    </radialGradient>
    <radialGradient id="froggiFeetHighlight" cx="0.4" cy="0.3">
      <stop offset="0%" style="stop-color:#86efac;stop-opacity:1" />
      <stop offset="100%" style="stop-color:#4ade80;stop-opacity:1" />
    </radialGradient>
    <linearGradient id="froggiToe3D" x1="0" y1="0" x2="1" y2="0">
      <stop offset="0%" style="stop-color:#16a34a;stop-opacity:1" />
      <stop offset="100%" style="stop-color:#14532d;stop-opacity:1" />
    </linearGradient>
  </defs>
  
  <!-- Flattened oval body -->
  <ellipse cx="100" cy="120" rx="70" ry="50" fill="url(#froggiBody3D)" />
  
  <!-- Big circular pop-out eyes -->
  <circle cx="70" cy="80" r="27" fill="url(#froggiEyeBase3D)" />
  <circle cx="130" cy="80" r="27" fill="url(#froggiEyeBase3D)" />
  
  <!-- Eyes -->
  <circle cx="70" cy="80" r="22" fill="url(#froggiEyeWhite3D)" />
  <circle cx="130" cy="80" r="22" fill="url(#froggiEyeWhite3D)" />
  <circle cx="70" cy="80" r="16" fill="url(#froggiPupil3D)" />
  <circle cx="130" cy="80" r="16" fill="url(#froggiPupil3D)" />
  <circle cx="74" cy="76" r="6" fill="white" opacity="0.9" />
  <circle cx="134" cy="76" r="6" fill="white" opacity="0.9" />
  
  <!-- Enhanced wide smile -->
  <path d="M 45 120 Q 100 145 155 120" stroke="url(#froggiMouth3D)" stroke-width="5" fill="none" stroke-linecap="round" />
  <path d="M 50 122 Q 100 142 150 122" stroke="url(#froggiMouthHighlight)" stroke-width="3" fill="none" stroke-linecap="round" />
  
  <!-- Enhanced nostrils -->
  <ellipse cx="90" cy="110" rx="4" ry="6" fill="url(#froggiNostril3D)" />
  <ellipse cx="110" cy="110" rx="4" ry="6" fill="url(#froggiNostril3D)" />
  <ellipse cx="90" cy="108" rx="2" ry="3" fill="url(#froggiNostrilHighlight)" />
  <ellipse cx="110" cy="108" rx="2" ry="3" fill="url(#froggiNostrilHighlight)" />
  
  <!-- Enhanced webbed feet -->
  <ellipse cx="60" cy="160" rx="22" ry="12" fill="url(#froggiFeet3D)" />
  <ellipse cx="140" cy="160" rx="22" ry="12" fill="url(#froggiFeet3D)" />
  <ellipse cx="60" cy="158" rx="18" ry="8" fill="url(#froggiFeetHighlight)" />
  <ellipse cx="140" cy="158" rx="18" ry="8" fill="url(#froggiFeetHighlight)" />
  
  <!-- Enhanced webbed toes -->
  <path d="M 43 160 Q 47 155 52 160" stroke="url(#froggiToe3D)" stroke-width="2.5" fill="none" stroke-linecap="round" />
  <path d="M 53 160 Q 57 155 62 160" stroke="url(#froggiToe3D)" stroke-width="2.5" fill="none" stroke-linecap="round" />
  <path d="M 63 160 Q 67 155 72 160" stroke="url(#froggiToe3D)" stroke-width="2.5" fill="none" stroke-linecap="round" />
  <path d="M 123 160 Q 127 155 132 160" stroke="url(#froggiToe3D)" stroke-width="2.5" fill="none" stroke-linecap="round" />
  <path d="M 133 160 Q 137 155 142 160" stroke="url(#froggiToe3D)" stroke-width="2.5" fill="none" stroke-linecap="round" />
  <path d="M 143 160 Q 147 155 152 160" stroke="url(#froggiToe3D)" stroke-width="2.5" fill="none" stroke-linecap="round" />
  
  <!-- Soft skin texture details -->
  <ellipse cx="75" cy="135" rx="4" ry="3" fill="rgba(255,255,255,0.2)" />
  <ellipse cx="125" cy="130" rx="3.5" ry="2.5" fill="rgba(255,255,255,0.2)" />
  <ellipse cx="85" cy="145" rx="3" ry="2" fill="rgba(255,255,255,0.15)" />
  <ellipse cx="115" cy="140" rx="3.5" ry="2.5" fill="rgba(255,255,255,0.15)" />
</svg>