<svg xmlns="http://www.w3.org/2000/svg" viewBox="0 0 60 120" fill="none">
  <!-- Frame -->
  <rect x="5" y="5" width="50" height="110" rx="2" fill="#8b6f4e" stroke="#6b5335" stroke-width="2"/>
  <!-- Shelf boards -->
  <rect x="8" y="38" width="44" height="3" fill="#a08060"/>
  <rect x="8" y="73" width="44" height="3" fill="#a08060"/>
  <!-- Top shelf books -->
  <rect x="12" y="10" width="7" height="27" rx="1" fill="#c45a4a"/>
  <rect x="20" y="12" width="6" height="25" rx="1" fill="#4a7c6a"/>
  <rect x="27" y="9" width="8" height="28" rx="1" fill="#7eb5d6"/>
  <rect x="36" y="11" width="6" height="26" rx="1" fill="#e8a060"/>
  <rect x="43" y="10" width="7" height="27" rx="1" fill="#9b7cb8"/>
  <!-- Middle shelf books -->
  <rect x="12" y="43" width="8" height="28" rx="1" fill="#5a9e4b"/>
  <rect x="21" y="45" width="6" height="26" rx="1" fill="#d46a5a"/>
  <rect x="28" y="42" width="7" height="29" rx="1" fill="#c4956a"/>
  <rect x="36" y="44" width="6" height="27" rx="1" fill="#7eb5d6"/>
  <!-- Bottom shelf — small plant and books -->
  <rect x="12" y="78" width="7" height="30" rx="1" fill="#e8a060"/>
  <rect x="20" y="80" width="6" height="28" rx="1" fill="#4a7c6a"/>
  <circle cx="42" cy="98" r="6" fill="#5a9e4b"/>
  <rect x="39" y="98" width="6" height="10" rx="1" fill="#c2703a"/>
</svg>
