<svg viewBox="0 0 200 200" xmlns="http://www.w3.org/2000/svg">  
  <!-- Main cloud body - multiple overlapping circles -->
  <circle cx="100" cy="120" r="45" fill="url(#cloudiBody)" />
  <circle cx="75" cy="110" r="35" fill="url(#cloudiBody)" />
  <circle cx="125" cy="110" r="35" fill="url(#cloudiBody)" />
  <circle cx="85" cy="95" r="25" fill="url(#cloudiBody)" />
  <circle cx="115" cy="95" r="25" fill="url(#cloudiBody)" />
  <circle cx="100" cy="85" r="30" fill="url(#cloudiBody)" />
  
  <!-- Fluffy highlights -->
  <circle cx="90" cy="100" r="20" fill="url(#cloudiHighlight)" opacity="0.6" />
  <circle cx="110" cy="105" r="18" fill="url(#cloudiHighlight)" opacity="0.5" />
  <circle cx="100" cy="90" r="15" fill="url(#cloudiHighlight)" opacity="0.7" />
  
  <!-- Sleeping eyes -->
  <path d="M 80 100 Q 88 103 96 100" stroke="#64748b" stroke-width="3" fill="none" stroke-linecap="round" />
  <path d="M 104 100 Q 112 103 120 100" stroke="#64748b" stroke-width="3" fill="none" stroke-linecap="round" />
  
  <!-- Peaceful mouth -->
  <circle cx="100" cy="115" r="2" fill="#64748b" />
  
  <!-- Floating raindrops with gentle animation -->
  <g>
    <animateTransform attributeName="transform" type="translate" values="0,0; 0,5; 0,0" dur="3s" repeatCount="indefinite" />
    <circle cx="70" cy="140" r="3" fill="url(#cloudiRain)" opacity="0.6" />
    <circle cx="130" cy="145" r="2.5" fill="url(#cloudiRain)" opacity="0.4" />
    <circle cx="85" cy="155" r="2" fill="url(#cloudiRain)" opacity="0.5" />
    <circle cx="115" cy="150" r="2.5" fill="url(#cloudiRain)" opacity="0.3" />
  </g>

  <!-- "Zzz" sleeping -->
  <text x="150" y="60" font-size="10" fill="#666" opacity="0.8">Z</text>
  <text x="157" y="55" font-size="8" fill="#666" opacity="0.6">z</text>
  <text x="162" y="51" font-size="6" fill="#666" opacity="0.4">z</text>
  
  <defs>
    <radialGradient id="cloudiBody" cx="0.3" cy="0.2">
      <stop offset="0%" stop-color="#ffffff" />
      <stop offset="50%" stop-color="#f1f5f9" />
      <stop offset="100%" stop-color="#e2e8f0" />
    </radialGradient>
    <radialGradient id="cloudiHighlight" cx="0.4" cy="0.3">
      <stop offset="0%" stop-color="#ffffff" />
      <stop offset="100%" stop-color="rgba(255,255,255,0.5)" />
    </radialGradient>
    <radialGradient id="cloudiRain" cx="0.5" cy="0.3">
      <stop offset="0%" stop-color="#60a5fa" />
      <stop offset="100%" stop-color="#3b82f6" />
    </radialGradient>
  </defs>
</svg>